# xmcd
#
# Track frame offsets: 
#        150
#        14717
#        28518
#        44936
#        62406
#        85210
#        102631
#        115494
#        130624
#        140810
#        157017
#        170849
#        180631
#        196225
#        214191
#        231793
#        251272
#        264898
#
# Disc length: 3816 seconds
#
# Revision: 2
# Processed by: cddbd v1.5.2PL0 Copyright (c) Steve Scherf et al.
# Submitted via: ExactAudioCopy v1.0b2
#
DISCID=090ee612
DTITLE=Various Artist - A Canadian Country Christmas
DYEAR=2007
DGENRE=Country
TTITLE0=George Canyon - Frosty the Snowman
TTITLE1=Jason McCoy - Dear Santa
TTITLE2=Doc Walker - Merry Christmas to All
TTITLE3=Shania Twain - God Bless the Child
TTITLE4=Sean Hogan - It's Christmas Time
TTITLE5=Carolyn Dawn Johnson - I Wouldn't Want Christmas (Any Other Wa
TTITLE5=y)
TTITLE6=Terri Clark - Merry Christmas (Wherever in the World You Are)
TTITLE7=Michelle Wright - Rudolph the Red Nosed Reindeer
TTITLE8=Brad Johner - Rockin' Around the Christmas Tree
TTITLE9=Jessie Farrell - Christmas at My House
TTITLE10=George Fox - When December Arrives (Don't It Remind You of Ch
TTITLE10=ristmas)
TTITLE11=Rita MacNeil - Blue Christmas
TTITLE12=John Landry - Christmas Carol
TTITLE13=Beverly Mahood - Joy to the World
TTITLE14=Johnny Reid - It Started with a Child
TTITLE15=Ennis Sisters - Christmas Must Be Tonight
TTITLE16=Patricia Conroy - It's Almost Christmas
TTITLE17=Paul Brandt - Christmas Convoy
EXTD=
EXTT0=
EXTT1=
EXTT2=
EXTT3=
EXTT4=
EXTT5=
EXTT6=
EXTT7=
EXTT8=
EXTT9=
EXTT10=
EXTT11=
EXTT12=
EXTT13=
EXTT14=
EXTT15=
EXTT16=
EXTT17=
PLAYORDER=
